# xmcd CD database file generated by Grip 3.3.1
# 
# Track frame offsets:
#       150
#       10139
#       21361
#       33348
#       51130
#       66007
#       83009
#       103961
#       116371
#       131353
#       144797
#       153192
#       164921
#       179253
# 
# Disc length: 2590 seconds
# 
# Revision: 4
# Processed by: cddbd v1.5.2PL0 Copyright (c) Steve Scherf et al.
# Submitted via: Grip 3.3.1
# 
DISCID=af0a1c0e
DTITLE=Johnny Cash - American III: Solitary Man-2000
DYEAR=1900
DGENRE=Country
TTITLE0=I Won't Back Down
TTITLE1=Solitary Man
TTITLE2=That Lucky Old Sun
TTITLE3=One
TTITLE4=Nobody
TTITLE5=I See A Darkness
TTITLE6=The Mercy Seat
TTITLE7=Would You Lay With Me
TTITLE8=Field Of Diamonds
TTITLE9=Before My Time
TTITLE10=Country Trash
TTITLE11=Mary Of The Wild Moor
TTITLE12=I'm Leavin' Now
TTITLE13=Wayfaring Stranger
EXTD=
EXTT0=
EXTT1=
EXTT2=
EXTT3=
EXTT4=
EXTT5=
EXTT6=
EXTT7=
EXTT8=
EXTT9=
EXTT10=
EXTT11=
EXTT12=
EXTT13=
PLAYORDER=
